<svg xmlns="http://www.w3.org/2000/svg" width="388.16" height="114.8"><path fill="#821ef5" d="M10 10v27h12V22h29.25v70.5h-15v12h42v-12h-15V22H92.5v15h12V10z"/><text font-family="Diogenes" font-size="40" font-style="italic" stroke-miterlimit="10" fill="#f2eaf2" transform="translate(230.58 72.53)"><tspan x="-148.08" y="8.98" stroke-width="0" stroke-miterlimit="4">u</tspan><tspan x="-129.6" y="8.98" stroke-width="0" stroke-miterlimit="4">t</tspan><tspan x="-112.08" y="8.98" stroke-width="0" stroke-miterlimit="4">o</tspan><tspan x="-91.16" y="8.98" stroke-width="0" stroke-miterlimit="4">r</tspan><tspan x="-77.28" y="8.98" stroke-width="0" stroke-miterlimit="4">i</tspan><tspan x="-70.24" y="8.98" stroke-width="0" stroke-miterlimit="4">a</tspan><tspan x="-50.04" y="8.98" stroke-width="0" stroke-miterlimit="4">l</tspan><tspan x="-43.88" y="8.98" stroke-width="0" stroke-miterlimit="4">F</tspan><tspan x="-21.96" y="8.98" stroke-width="0" stroke-miterlimit="4">o</tspan><tspan x="-1.04" y="8.98" stroke-width="0" stroke-miterlimit="4">r</tspan><tspan x="12.84" y="8.98" stroke-width="0" stroke-miterlimit="4">B</tspan><tspan x="33.36" y="8.98" stroke-width="0" stroke-miterlimit="4">e</tspan><tspan x="51.36" y="8.98" stroke-width="0" stroke-miterlimit="4">g</tspan><tspan x="69.96" y="8.98" stroke-width="0" stroke-miterlimit="4">i</tspan><tspan x="77" y="8.98" stroke-width="0" stroke-miterlimit="4">n</tspan><tspan x="96.6" y="8.98" stroke-width="0" stroke-miterlimit="4">n</tspan><tspan x="116.2" y="8.98" stroke-width="0" stroke-miterlimit="4">e</tspan><tspan x="134.2" y="8.98" stroke-width="0" stroke-miterlimit="4">r</tspan></text><path d="M326.245 56.483a.836.836 0 001.182 0l17.106-17.106v6.396a.842.842 0 001.685 0v-8.42c0-.224-.087-.44-.245-.598s-.374-.245-.597-.245h-8.422a.842.842 0 000 1.684h6.397L326.245 55.3a.836.836 0 000 1.183z" fill="#f0e4f0"/><g transform="matrix(.08 0 0 .08 111 14.97)" stroke-miterlimit="10" fill="none"><circle cx="252.2" cy="252.2" r="252.2" fill="#90dfaa"/><path d="M97.4 183.8v-23.5c0-16.7 13.5-30.2 30.2-30.2h249.3c16.7 0 30.2 13.5 30.2 30.2v23.5H97.4z" fill="#ff7058"/><circle cx="369" cy="158.6" r="10.1" fill="#fff"/><circle cx="331" cy="158.6" r="10.1" fill="#fff"/><circle cx="293.1" cy="158.6" r="10.1" fill="#fff"/><path d="M142.3 286.1v-17.4l61.6-29v18.6l-40.7 18.8 40.7 19.3v18.8l-61.6-29.1zm127.5-60.8h18l-53.3 116.3h-17.9l53.2-116.3zm92.3 43.4v17.4l-61.6 29v-18.8l40.7-19.3-40.7-18.8v-18.6l61.6 29.1z" fill="#324a5e"/><path d="M376.9 130.2H127.5c-16.6 0-30.1 13.5-30.1 30.1v183.8c0 16.6 13.5 30.1 30.1 30.1H377c16.6 0 30.1-13.5 30.1-30.1V160.3c-.1-16.6-13.5-30.1-30.2-30.1z" fill="#fff"/><path d="M376.9 130.2H127.5c-16.7 0-30.2 13.5-30.2 30.2v23.5H407v-23.5c0-16.7-13.5-30.2-30.1-30.2z" fill="#ff7058"/><circle cx="369" cy="158.6" r="10.1" fill="#fff"/><circle cx="331" cy="158.6" r="10.1" fill="#fff"/><circle cx="293.1" cy="158.6" r="10.1" fill="#fff"/><path d="M331.8 345.7l-88.4-88.4-61.2 61.2 88.4 88.4c9.4 9.4 24.6 9.4 34 0l27.2-27.2c9.4-9.3 9.4-24.6 0-34z" fill="#54c0eb"/><path d="M260.2 396.6l11.4 11.4c8.8 8.8 23.2 8.8 32 0l29.2-29.2c8.8-8.8 8.8-23.2 0-32l-11.4-11.4-61.2 61.2z" fill="#f1543f"/><path fill="#ffd05b" d="M243.3 257.2L165 240l17.3 78.5z"/><path fill="#324a5e" d="M196 246.8l-31-6.8 6.8 31z"/></g></svg>